<svg xmlns="http://www.w3.org/2000/svg" xmlns:xlink="http://www.w3.org/1999/xlink" width="500" zoomAndPan="magnify" viewBox="0 0 375 374.999991" height="500" preserveAspectRatio="xMidYMid meet" version="1.0"><rect x="-37.5" width="450" fill="#ffffff" y="-37.499999" height="449.999989" fill-opacity="1"/><rect x="-37.5" width="450" fill="#ffffff" y="-37.499999" height="449.999989" fill-opacity="1"/><path fill="#000000" d="M 127.367188 294.691406 C 127.367188 296.144531 125.695312 297.308594 123.585938 297.308594 C 121.183594 297.527344 119.511719 296.363281 119.511719 294.691406 C 119.511719 293.234375 121.183594 292.070312 123.292969 292.070312 C 125.476562 291.851562 127.367188 293.015625 127.367188 294.691406 Z M 104.742188 291.414062 C 104.234375 292.871094 105.6875 294.542969 107.871094 294.980469 C 109.761719 295.707031 111.945312 294.980469 112.382812 293.523438 C 112.820312 292.070312 111.4375 290.394531 109.253906 289.738281 C 107.363281 289.230469 105.253906 289.957031 104.742188 291.414062 Z M 136.898438 290.175781 C 134.789062 290.6875 133.332031 292.070312 133.550781 293.742188 C 133.769531 295.199219 135.660156 296.144531 137.84375 295.636719 C 139.953125 295.125 141.410156 293.742188 141.191406 292.289062 C 140.972656 290.90625 139.007812 289.957031 136.898438 290.175781 Z M 184.769531 11.257812 C 83.863281 11.257812 6.675781 87.902344 6.675781 188.859375 C 6.675781 269.578125 57.457031 338.652344 129.988281 362.964844 C 139.300781 364.636719 142.574219 358.886719 142.574219 354.15625 C 142.574219 349.644531 142.355469 324.75 142.355469 309.464844 C 142.355469 309.464844 91.429688 320.382812 80.734375 287.773438 C 80.734375 287.773438 72.441406 266.59375 60.511719 261.136719 C 60.511719 261.136719 43.851562 249.707031 61.675781 249.925781 C 61.675781 249.925781 79.789062 251.382812 89.757812 268.703125 C 105.6875 296.800781 132.386719 288.722656 142.792969 283.917969 C 144.464844 272.269531 149.191406 264.191406 154.429688 259.386719 C 113.765625 254.875 72.734375 248.980469 72.734375 178.960938 C 72.734375 158.941406 78.261719 148.898438 89.902344 136.085938 C 88.011719 131.355469 81.828125 111.851562 91.792969 86.664062 C 107 81.933594 141.992188 106.316406 141.992188 106.316406 C 156.542969 102.242188 172.183594 100.132812 187.679688 100.132812 C 203.171875 100.132812 218.816406 102.242188 233.363281 106.316406 C 233.363281 106.316406 268.355469 81.863281 283.5625 86.664062 C 293.527344 111.921875 287.34375 131.355469 285.453125 136.085938 C 297.09375 148.972656 304.222656 159.015625 304.222656 178.960938 C 304.222656 249.199219 261.375 254.800781 220.707031 259.386719 C 227.398438 265.136719 233.074219 276.054688 233.074219 293.160156 C 233.074219 317.691406 232.855469 348.042969 232.855469 354.011719 C 232.855469 358.742188 236.203125 364.492188 245.441406 362.816406 C 318.191406 338.652344 367.515625 269.578125 367.515625 188.859375 C 367.515625 87.902344 285.671875 11.257812 184.769531 11.257812 Z M 77.390625 262.300781 C 76.445312 263.027344 76.660156 264.703125 77.898438 266.085938 C 79.0625 267.25 80.734375 267.757812 81.679688 266.8125 C 82.628906 266.085938 82.410156 264.410156 81.171875 263.027344 C 80.007812 261.863281 78.335938 261.351562 77.390625 262.300781 Z M 69.53125 256.402344 C 69.023438 257.351562 69.75 258.515625 71.207031 259.242188 C 72.371094 259.96875 73.824219 259.753906 74.332031 258.734375 C 74.84375 257.785156 74.117188 256.621094 72.660156 255.894531 C 71.207031 255.457031 70.042969 255.675781 69.53125 256.402344 Z M 93.101562 282.316406 C 91.9375 283.261719 92.375 285.445312 94.050781 286.828125 C 95.722656 288.503906 97.832031 288.722656 98.777344 287.554688 C 99.722656 286.609375 99.285156 284.425781 97.832031 283.042969 C 96.230469 281.371094 94.050781 281.152344 93.101562 282.316406 Z M 84.808594 271.617188 C 83.644531 272.34375 83.644531 274.238281 84.808594 275.910156 C 85.972656 277.585938 87.9375 278.3125 88.882812 277.585938 C 90.046875 276.636719 90.046875 274.746094 88.882812 273.070312 C 87.867188 271.398438 85.972656 270.671875 84.808594 271.617188 Z M 84.808594 271.617188 " fill-opacity="1" fill-rule="nonzero"/></svg>